# xmcd
#
# Track frame offsets:
#  150
#  15962
#  30372
#  44564
#  60508
#  73831
#  87899
#  102201
#  115223
#  130159
#  143829
#  157323
#  170599
#  183191
#  196732
#  211046
#  226044
#  240550
#  253885
#  268502
#  282717
#  297745
#
# Disc length: 4134 seconds
#
# Revision: 0
# Processed by: cddbd v1.5.1PL2 Copyright (c) Steve Scherf et al.
# Submitted via: Collectorz.com_Music_Collector 6.11
#
DISCID=3e102416
DTITLE=Lillian Glinn - Complete Recorded Works In Chronological Order 1927-1929
DYEAR=1900
DGENRE=Blues
TTITLE0=All Alone and Blue
TTITLE1=Come Home Daddy
TTITLE2=Doggin' Me Blues
TTITLE3=Brown Skin Blues
TTITLE4=The Man I Love Is Worth Talking About
TTITLE5=Best Friend Blues
TTITLE6=Lost Letter Blues
TTITLE7=Packing House Blues
TTITLE8=Shake It Down
TTITLE9=Where Have All The Black Men Gone
TTITLE10=I'm A Front Door Woman With A Back Door Man
TTITLE11=Atlanta Blues
TTITLE12=All the Week Blues
TTITLE13=Cannon Ball Blues
TTITLE14=Wobble It a Little Daddy
TTITLE15=Black Man Blues
TTITLE16=I'm Through (Shedding Tears Over You)
TTITLE17=I Love That Thing
TTITLE18=Don't Leave Me Daddy
TTITLE19=Shreveport Blues
TTITLE20=Moanin' Blues
TTITLE21=Cravin' A Man Blues
EXTD=
EXTT0=
EXTT1=
EXTT2=
EXTT3=
EXTT4=
EXTT5=
EXTT6=
EXTT7=
EXTT8=
EXTT9=
EXTT10=
EXTT11=
EXTT12=
EXTT13=
EXTT14=
EXTT15=
EXTT16=
EXTT17=
EXTT18=
EXTT19=
EXTT20=
EXTT21=
PLAYORDER=
